# xmcd CD database file
#
# Track frame offsets:
#	150
#	16562
#	32014
#	48749
#	65573
#	82631
#	98811
#	113865
#	132499
#	148830
#	164224
#	182569
#	202674
#	220502
#	241367
#	258817
#	273088
#	290705
#	309180
#
# Disc length: 4385 seconds
#
# Revision: 0
# Processed by: cddbd v1.5.1PL2 Copyright (c) Steve Scherf et al.
# Submitted via: CDex 1.51
#
DISCID=05111f13
DTITLE=Various Artist - Deep Heat The 4th Attack CD 1
DYEAR=1999
DGENRE=Mix
TTITLE0=Lou Bega - Mambo No. 5
TTITLE1=Masterboy - Porque te vas
TTITLE2=Loona - Mamboleo
TTITLE3=Gracia - Kalimba de luna
TTITLE4=Carlos T.Quila - Everybody
TTITLE5=Real Mc Coy - It´s on you
TTITLE6=Mark OH - The Sparrows and the
TTITLE7=ATB - Killer
TTITLE8=Alice Deejay - Better off Alone
TTITLE9=Future Breeze - Cruel World
TTITLE10=Spike - Wke Up
TTITLE11=JLO - If you had my Love
TTITLE12=Sasha - I feel Lonley
TTITLE13=TLC - Unpretty
TTITLE14=24 Family - Take me Home
TTITLE15=N-Tune - Everybody
TTITLE16=Britney Spears - Sometimes 
TTITLE17=Whitney Houston - My Love is 
TTITLE18=Ace of Base - Everytime it rains
EXTD=YEAR: 1999
EXTT0=
EXTT1=
EXTT2=
EXTT3=
EXTT4=
EXTT5=
EXTT6=
EXTT7=
EXTT8=
EXTT9=
EXTT10=
EXTT11=
EXTT12=
EXTT13=
EXTT14=
EXTT15=
EXTT16=
EXTT17=
EXTT18=
PLAYORDER=
